<mxfile host="Electron" agent="Mozilla/5.0 (Windows NT 10.0; Win64; x64) AppleWebKit/537.36 (KHTML, like Gecko) draw.io/24.7.5 Chrome/126.0.6478.183 Electron/31.3.0 Safari/537.36" version="24.7.5">
  <diagram name="Page-1" id="cvO5egsq35unYoasPx4Q">
    <mxGraphModel dx="1235" dy="864" grid="1" gridSize="10" guides="1" tooltips="1" connect="1" arrows="1" fold="1" page="1" pageScale="1" pageWidth="850" pageHeight="1100" math="0" shadow="0">
      <root>
        <mxCell id="0" />
        <mxCell id="1" parent="0" />
        <mxCell id="fJ-7VJib2gcSUYqOw2eI-17" value="ETA: 10 Min" style="text;html=1;align=center;verticalAlign=middle;whiteSpace=wrap;rounded=0;fontStyle=1" vertex="1" parent="1">
          <mxGeometry x="511" y="165" width="80" height="30" as="geometry" />
        </mxCell>
        <mxCell id="fJ-7VJib2gcSUYqOw2eI-4" value="" style="group" vertex="1" connectable="0" parent="1">
          <mxGeometry x="50" y="540" width="80" height="110" as="geometry" />
        </mxCell>
        <mxCell id="fJ-7VJib2gcSUYqOw2eI-2" value="Store" style="shape=cylinder3;whiteSpace=wrap;html=1;boundedLbl=1;backgroundOutline=1;size=15;" vertex="1" parent="fJ-7VJib2gcSUYqOw2eI-4">
          <mxGeometry x="10" y="40" width="60" height="70" as="geometry" />
        </mxCell>
        <mxCell id="fJ-7VJib2gcSUYqOw2eI-3" value="" style="triangle;whiteSpace=wrap;html=1;rotation=-90;" vertex="1" parent="fJ-7VJib2gcSUYqOw2eI-4">
          <mxGeometry x="10" y="-10" width="60" height="80" as="geometry" />
        </mxCell>
        <mxCell id="fJ-7VJib2gcSUYqOw2eI-5" value="Customer A" style="shape=umlActor;verticalLabelPosition=bottom;verticalAlign=top;html=1;outlineConnect=0;" vertex="1" parent="1">
          <mxGeometry x="530" y="190" width="30" height="60" as="geometry" />
        </mxCell>
        <mxCell id="fJ-7VJib2gcSUYqOw2eI-6" value="Customer B" style="shape=umlActor;verticalLabelPosition=bottom;verticalAlign=top;html=1;outlineConnect=0;" vertex="1" parent="1">
          <mxGeometry x="190" y="37" width="30" height="60" as="geometry" />
        </mxCell>
        <mxCell id="fJ-7VJib2gcSUYqOw2eI-9" value="" style="curved=1;endArrow=classic;html=1;rounded=0;" edge="1" parent="1">
          <mxGeometry width="50" height="50" relative="1" as="geometry">
            <mxPoint x="120" y="610" as="sourcePoint" />
            <mxPoint x="230" y="80" as="targetPoint" />
            <Array as="points">
              <mxPoint x="450" y="400" />
              <mxPoint x="430" y="250" />
              <mxPoint x="600" y="230" />
            </Array>
          </mxGeometry>
        </mxCell>
        <mxCell id="fJ-7VJib2gcSUYqOw2eI-15" value="" style="group" vertex="1" connectable="0" parent="1">
          <mxGeometry x="171" y="490" width="60" height="43" as="geometry" />
        </mxCell>
        <mxCell id="fJ-7VJib2gcSUYqOw2eI-13" style="edgeStyle=orthogonalEdgeStyle;rounded=0;orthogonalLoop=1;jettySize=auto;html=1;entryX=0.5;entryY=0;entryDx=0;entryDy=0;" edge="1" parent="fJ-7VJib2gcSUYqOw2eI-15">
          <mxGeometry relative="1" as="geometry">
            <mxPoint x="30" y="7" as="sourcePoint" />
            <mxPoint x="29.999999999999943" y="5.5400000000000205" as="targetPoint" />
          </mxGeometry>
        </mxCell>
        <mxCell id="fJ-7VJib2gcSUYqOw2eI-14" value="" style="group" vertex="1" connectable="0" parent="fJ-7VJib2gcSUYqOw2eI-15">
          <mxGeometry width="60" height="43" as="geometry" />
        </mxCell>
        <mxCell id="fJ-7VJib2gcSUYqOw2eI-11" value="" style="ellipse;whiteSpace=wrap;html=1;aspect=fixed;" vertex="1" parent="fJ-7VJib2gcSUYqOw2eI-14">
          <mxGeometry x="20" width="20" height="20" as="geometry" />
        </mxCell>
        <mxCell id="fJ-7VJib2gcSUYqOw2eI-12" value="Driver" style="text;html=1;align=center;verticalAlign=middle;whiteSpace=wrap;rounded=0;" vertex="1" parent="fJ-7VJib2gcSUYqOw2eI-14">
          <mxGeometry y="16" width="60" height="30" as="geometry" />
        </mxCell>
        <mxCell id="fJ-7VJib2gcSUYqOw2eI-18" value="ETA: 15 Min" style="text;html=1;align=center;verticalAlign=middle;whiteSpace=wrap;rounded=0;fontStyle=1" vertex="1" parent="1">
          <mxGeometry x="169" y="10" width="80" height="30" as="geometry" />
        </mxCell>
      </root>
    </mxGraphModel>
  </diagram>
</mxfile>
